# xmcd
#
# Track frame offsets:
# 150
# 16523
# 29854
# 43174
# 53183
# 68513
# 84594
# 100591
# 112589
# 121921
# 133917
# 143915
# 157532
# 168830
# 180204
# 191201
#
# Disc length: 2649 seconds
#
#
# Revision: 0
# Processed by: cddbd v1.5.2PL0 Copyright (c) Steve Scherf et al.
# Submitted via: FreeRIP 2.945 
#
DISCID=c20a5710
DTITLE=Forró 100 Preconceito Vol. 1 - Vol. 1
DYEAR=2006
DGENRE=Forró
TTITLE0=Sou raparigueiro
TTITLE1=Mala fofoqueiro
TTITLE2=Bebo e fico bebo
TTITLE3=Ela domina
TTITLE4=A casa caiu
TTITLE5=O pinto
TTITLE6=Quenga de primeira
TTITLE7=Doidinho
TTITLE8=Bebo porque gosto
TTITLE9=Quenga de paredão
TTITLE10=Rapariga não concerto
TTITLE11=Mulher de sirano
TTITLE12=Diz que é mentira
TTITLE13=Só xote
TTITLE14=Ficar contigo
TTITLE15=Quero ter você pequena
EXTD=NELDVD:2006
EXTT0=
EXTT1=
EXTT2=
EXTT3=
EXTT4=
EXTT5=
EXTT6=
EXTT7=
EXTT8=
EXTT9=
EXTT10=
EXTT11=
EXTT12=
EXTT13=
EXTT14=
EXTT15=
PLAYORDER=
